# xmcd
#
# Track frame offsets: 
#        150
#        18351
#        22805
#        33531
#        37468
#        51443
#        60504
#        70762
#        83172
#        86692
#        94097
#        102003
#        106238
#        117381
#        128791
#        140050
#        150615
#
# Disc length: 2160 seconds
#
# Revision: 0
# Processed by: cddbd v1.5.2PL0 Copyright (c) Steve Scherf et al.
# Submitted via: ExactAudioCopy v1.3
#
DISCID=e2086e11
DTITLE=Bob Dylan - 50th Anniversary Collection 1969
DYEAR=2019
DGENRE=Blues Rock
TTITLE0=One Too Many Mornings (Take 2)
TTITLE1=I Still Miss Someone (Takes 1 and 3)
TTITLE2=I Still Miss Someone (Take 4)
TTITLE3=Matchbox (Rehearsal)
TTITLE4=Matchbox (Take 2)
TTITLE5=Big River (Take 2)
TTITLE6=I Walk The Line (Take 1)
TTITLE7=Ring Of Fire (Takes 2 and 3)
TTITLE8=Guess Things Happen This Way (Take 1)
TTITLE9=Guess Things Happen This Way (Take 2)
TTITLE10=Guess Things Happen This Way (Take 6)
TTITLE11=Waiting For A Train (Take 1)
TTITLE12=Running
TTITLE13=Take A Message To Mary
TTITLE14=Blue Moon
TTITLE15=Blue Moon
TTITLE16=Ring Of Fire
EXTD=
EXTT0=
EXTT1=
EXTT2=
EXTT3=
EXTT4=
EXTT5=
EXTT6=
EXTT7=
EXTT8=
EXTT9=
EXTT10=
EXTT11=
EXTT12=
EXTT13=
EXTT14=
EXTT15=
EXTT16=
PLAYORDER=
